<svg xmlns="http://www.w3.org/2000/svg" width="500" height="500"><path d="m325 16c-7.5 4.1-33.7 4.2-38 13-1.3 8.6-13.4 12.3-19.6 19.9-12.5 5.1-14.6 21.6-24.4 29.1-3.6 4.3-6.7 19.3-11 20-2 13.9-9.5 24.8-14.5 37.9-8.4 13.6-9.8 30.2-9.5 46.1-3 21.1-31.8 5.7-32.9-9.1-2.6-14.7-9.1-29.9-7.1-46.9 2.1-16.3 11.3-32.1 20-45 9.7-9.9 18.1-27.2 27.8-30.6-4.2-3.6 18.2 1.2 19.5-8 .9-7.5-5.3-9-13.2-14.4-12.5-9.4-36.2 3.7-45.7 16-6.8 6.2-12.4 17.5-19.9 24.6-7.9 5-6.8 12.9-12.4 21.1-7.2 11.1-13.1 26.2-10 38.3-6.7 6.8 4.7 18.5-2.1 28 3.4 13.7 4.3 29.5 16.1 38 2.7 16.6 25 28.7 42 29.8 20.1 6.1 8.5 38.5 10.8 55.4 1.5 14.5-11.9 17.2-22.3 23.5-12.6 5.2-25.5 10.6-36.3 20.3-13.6 6.7-24.3 18.9-34.2 30.1-6.1 5.6-8.2 23-3 34 5.7 12.1 15.9 20.8 27 26 14 13.8 34.9 18.4 54.1 17 15.2.5 31.8-.2 43.5-10.6 16.1-2.5 24.8-21.2 23.4-36.4.8-11.4.4-22.5-1.3-33.7-.7-10.1-.8-20.2-.7-30.3 16-11 40.1-8.5 59.8-11.4 20.2.8 41.6-.4 59.7 9.8 17.5 4.3 36.2 18.3 35.5 38.6.1 26.4-12.6 51.1-28.1 71.8-2.2 15.2-24 29.7-18.1 42.5-1.6 6.8 18.4-4.3 20.8-12.8 7.7-13 21.6-18.4 30.5-29.5 8.1-14.9 17.3-29.9 26.1-43.8 8.8-13.1 16.1-29.2 9.2-44.7-3.8-22.6-22.7-36.3-40.4-48.4-14.7-5.3-30.1-10.2-45.6-13.3-24.5-7.1-50.3-4.3-75.5-4.2-11.3 2.2-23.9 5.5-35.1 2.8 2-18.9-4.1-37.3.4-55.9 11.8-10.8 30.5-15.3 44.8-24.3 13.5-5.3 24.3-16.5 36-24 13-7.2 21.4-18.8 32.8-26.2 7.1-12.1 21.6-16.9 24.8-31.8.4-4.5 13-9.9 10.9-20.1 2.9-14.8-2.6-23.2-5.2-36.6-9-15-23.1-24.9-38.1-33.7-7.3-2.7-24.2-7.8-31.1-7.5zm6 38c2.8-.5 13.3 3.7 16.9 7.1 8.6 10 9.4 28.8.3 39.5-4.3 10.1-15.3 20.2-22.1 27.4-8.4 8.8-18.4 15-28.6 23-10 8.8-20.8 9.1-29.1 18-16.9 13.7-9.1-13.5-6.2-22 4.9-11.1 8-24.8 12.9-35.1 1.1-7.5 13.2-15.6 16.1-26.9 6.9-5.8 14.4-15.8 23-25 3.7-2.6 15.4-11.5 17-6zm-129 285c.4 17.7 3.4 35.7-2.1 52.8-15.4 7.6-49.7-6.1-42.2-26.1 9.1-13.3 22.4-23.1 37.4-30.4 4-2.3 6.5-1.2 7 3.8z" fill-rule="evenodd"/></svg>
