<svg xmlns="http://www.w3.org/2000/svg" width="500" height="500"><path d="M324.971 15.961c2.264 1.431 1.146 1.797-7.034 2.302-4.16.256-8.439.935-9.51 1.509s-4.146 1.271-6.833 1.551c-3.624.377-5.459 1.176-7.106 3.093-1.51 1.757-3.224 2.584-5.354 2.584-1.724 0-3.134.45-3.134 1s.45 1 1 1c1.792 0 1.052 1.849-1 2.5-1.1.349-2 1.21-2 1.912s-.9 2.093-2 3.088-2 2.463-2 3.262c0 .866-.593 1.225-1.468.889-.807-.31-1.734-.133-2.059.393s-1.242.956-2.038.956-3.443 2.025-5.883 4.5-4.806 4.5-5.257 4.5C262.376 51 254 61.436 254 62.58c0 .402-1.124 2.205-2.499 4.007s-2.948 4.459-3.498 5.905-1.45 2.35-2.001 2.009-1.002.079-1.002.932-.877 2.098-1.949 2.767c-1.448.904-1.673 1.55-.878 2.509.804.968.651 1.291-.61 1.291-.924 0-1.436.396-1.136.881s-.792 2.397-2.426 4.25c-2.75 3.121-3.374 5.18-3.142 10.369.05 1.1-.161 1.438-.468.75-.758-1.699-2.738-1.598-2.084.107.286.746-.344 2.659-1.401 4.25-1.218 1.835-1.721 3.833-1.374 5.462.407 1.91-.213 3.44-2.414 5.961-2.268 2.598-2.741 3.806-2.018 5.156.735 1.375.176 2.576-2.536 5.452-1.914 2.029-3.279 4.014-3.034 4.411.62 1.004-1.528 7.119-3.172 9.03-.747.868-1.358 2.246-1.358 3.061s-.895 2.443-1.988 3.617c-1.432 1.537-2.169 4.174-2.636 9.438-.357 4.018-.991 7.755-1.41 8.305s-.667 4.375-.553 8.5-.191 8.85-.68 10.5-.975 3.675-1.08 4.5-.853 2.512-1.662 3.75c-1.281 1.957-2.33 2.25-8.071 2.25-6.268 0-6.758-.175-9.784-3.5-1.751-1.925-4.056-3.5-5.122-3.5-1.391 0-2.222-1.056-2.951-3.75-.557-2.062-1.717-4.751-2.576-5.974s-1.659-3.541-1.775-5.152-.516-2.742-.888-2.513c-.577.355-1.661-6.178-2.176-13.111-.081-1.1-.692-2.45-1.357-3-1.818-1.504-2.469-8.48-2.409-25.837.009-2.66.421-5.36.915-6 1.108-1.436 4.203-11.005 4.203-12.996 0-.801 1.117-2.517 2.483-3.812s2.49-2.947 2.5-3.67 1.009-3.648 2.221-6.5c1.914-4.503 3.19-6.103 6.964-8.728.43-.299.923-1.424 1.096-2.5.47-2.92 1.575-4.46 9.236-12.88 3.85-4.231 7.549-8.738 8.22-10.016s1.955-2.606 2.854-2.951 1.393-1.254 1.099-2.021c-.76-1.979.392-2.78 2.035-1.416 1.078.894 1.777.767 3.092-.563 1.602-1.619 1.584-1.677-.3-1.005-1.1.393-1.723.403-1.385.023s1.621-.885 2.852-1.122 2.826-.919 3.546-1.517c.942-.782 1.498-.781 1.982.003.394.638 1.571.787 2.839.359 1.191-.401 3.291-.833 4.666-.959l3.5-.319c1.455-.129 3.499-4.955 2.389-5.641-.507-.314-.632-1.039-.277-1.613s.024-1.442-.734-1.931c-1.157-.745-1.137-1.064.122-1.982 1.313-.959 1.305-1.033-.072-.6-.874.275-2.098-.348-2.758-1.406-.653-1.045-1.975-1.9-2.938-1.9s-2.313-.9-3-2-1.92-2-2.74-2c-1.28 0-1.839-.99-1.692-3 .053-.731-11.872-.206-14.8.652-2.457.72-3.511.891-7.5 1.214-1.1.089-4.005 1.971-6.456 4.181s-5.572 4.298-6.935 4.641c-2.557.641-8.759 6.245-8.351 7.544.127.403-.926 1.023-2.34 1.378-2.083.523-2.461 1.083-1.992 2.95.428 1.707.077 2.463-1.355 2.917-1.085.345-2.217 1.909-2.581 3.568-.357 1.625-1.052 2.955-1.544 2.955s-1.605 1.373-2.472 3.051c-1.15 2.224-2.073 2.894-3.402 2.472-1.671-.53-2.317.311-3.437 4.477-.204.756-4.562 5-5.135 5h-1.327c-.455 0-.628 1.35-.386 3 .323 2.201.039 3-1.067 3-1.643 0-3.058 2.645-2.177 4.07.558.902-1.232 5.016-2.58 5.93-.767.52-4.214 7.875-4.373 9.331-.049.456-.878 1.406-1.84 2.11s-1.75 1.98-1.75 2.836-.525 1.731-1.167 1.945c-1.853.618-2.734 13.685-1.453 21.56.319 1.964.149 3.045-.423 2.691-.527-.325-.957.137-.957 1.027s-.45 1.34-1 1c-1.964-1.214-1.064 6.436 1 8.5 2.274 2.274 2.682 7.524.645 8.306-2.166.831-2.688 7.266-1.013 12.476 1.875 5.829 2.52 8.852 2.716 12.718.084 1.65.715 3.595 1.402 4.321s1.25 2.163 1.25 3.191.45 2.148 1 2.488 1 1.413 1 2.385c0 1.929 3.433 5.439 6.319 6.461 1.247.442 1.627 1.248 1.21 2.564-.831 2.617.4 7.09 1.952 7.09 1.104 0 2.955 1.854 11.512 11.532.988 1.117 5.556 3.895 10.152 6.174 6.667 3.305 9.835 4.261 15.682 4.732 4.03.325 8.621 1.259 10.202 2.077 2.74 1.417 2.875 1.807 2.859 8.236-.009 3.712.44 9.674.999 13.249 1.506 9.645 1.545 20.382.112 30.5l-1.509 11-.362 2.742c-.139.808-2.654 2.207-14.71 8.183-4.355 2.159-8.068 4.297-8.251 4.75s-1.395.825-2.691.825-2.612.411-2.922.913-2.417 1.226-4.682 1.609c-2.485.419-5.317 1.842-7.143 3.587-1.664 1.59-3.612 2.891-4.328 2.891s-1.661.608-2.101 1.35c-1.092 1.843-10.277 8.248-13.042 9.094-2.696.825-10.992 7.24-17.462 13.503L115.521 344c-3.211 3.066-6.475 7.281-7.056 9.111-.334 1.051-1.568 1.924-2.782 1.968-1.201.043-1.602.312-.891.597 1.003.403 1.027.838.107 1.945-.651.785-.899 1.713-.55 2.061s.216 1.137-.295 1.752-1.22 5.025-1.577 9.8c-.529 7.063-.355 9.103.936 10.946.873 1.246 1.587 3.365 1.587 4.709s.663 3.156 1.474 4.027c11.045 11.871 14.386 15.891 13.741 16.536-.302.301.877.548 2.618.548s3.167.441 3.167.981 1.125 1.263 2.5 1.608 2.5 1.029 2.5 1.519.372.892.827.892 3.042 2.041 5.75 4.535 6.048 4.815 7.423 5.158 4.525 1.498 7 2.569c9.301 4.024 18.719 5.54 32.5 5.231 7.15-.16 14.8-.573 17-.918 11.564-1.81 16.579-2.894 17.071-3.691.301-.486 1.442-.884 2.536-.884s2.98-1.057 4.191-2.348c2.8-2.986 5.228-4.213 10.065-5.087 4.597-.831 6.669-2.631 9.507-8.261 1.164-2.308 2.746-4.558 3.515-5 2.362-1.357 4.773-8.537 4.635-13.804-.17-6.46-.187-5.866.407-14 .701-9.598.598-15.852-.271-16.477-.401-.288-.8-2.773-.888-5.523l-.84-19.18c-.374-7.799-.391-15.331-.038-16.737 1.253-4.994 5.595-6.198 24.11-6.69 2.75-.073 5.775-.538 6.723-1.034 5.566-2.91 29.309-4.336 43.777-2.629 4.675.551 11.58.928 15.345.836 7.309-.177 16.366 2.247 24.457 6.546 2.366 1.257 4.91 2.052 5.653 1.767 1.585-.608 12.133 4.99 18.67 9.908 1.306.984 4.175 3.05 6.375 4.593 3.325 2.332 4.486 4.127 6.878 10.638 2.072 5.638 2.855 9.536 2.794 13.908-.108 7.729-2.55 22.384-4.455 26.731-.806 1.839-2.903 6.943-4.662 11.343-4.815 12.049-7.032 16.21-13.055 24.496-5.658 7.784-7.271 10.324-9.847 15.504-2.552 5.134-2.878 5.973-3.605 9.282-.389 1.768-1.561 3.814-2.606 4.546-2.101 1.472-7.086 8.447-7.357 10.294-.095.647-.737 1.856-1.427 2.688s-1.517 3.127-1.837 5.101c-.495 3.046-.298 3.594 1.298 3.621 1.793.03 1.787.105-.119 1.603-1.94 1.525-1.925 1.549.5.795 1.375-.427 3.557-.7 4.85-.606 2.179.158 8.219-3.234 8.986-5.046.185-.437 1.926-2.704 3.868-5.037l7.164-8.668c1.997-2.435 4.5-5.135 5.56-6s4.032-3.485 6.604-5.823 5.416-4.25 6.322-4.25 1.646-.404 1.646-.899 2.249-3.196 4.999-6.003 4.917-5.441 4.817-5.852c-.24-.983 4.478-10.653 5.4-11.068.393-.177 1.743-2.403 3-4.946s3.282-5.711 4.502-7.04 2.516-3.377 2.881-4.553 1.533-3.373 2.595-4.882 1.703-3.114 1.423-3.568.591-2.012 1.937-3.463 2.446-2.902 2.446-3.224.915-1.568 2.034-2.769c2.659-2.854 6.536-11.246 7.385-15.983.369-2.063 1.001-3.75 1.403-3.75 1.062 0-.273-14.137-1.558-16.5-.598-1.1-1.653-4.7-2.344-8s-2.45-7.816-3.909-10.035-3.296-5.487-4.081-7.262-2.191-3.469-3.124-3.765-4.532-3.325-8.001-6.733c-7.615-7.482-16.812-14.418-20.27-15.286-1.394-.35-2.535-1.037-2.535-1.527s-.794-.892-1.765-.892-3.392-.872-5.381-1.938-5.367-2.101-7.508-2.301-4.332-.633-4.869-.964-4.438-1.406-8.669-2.389-7.501-2.096-7.268-2.473-1.706-.936-4.309-1.244-8.556-1.305-13.231-2.217c-13.06-2.548-18.747-2.934-42.5-2.884-13.916.029-23.286.473-25.5 1.208-1.925.64-5.75 1.409-8.5 1.709l-12.731 1.565c-5.45.718-8.328.699-9.75-.062-2.324-1.244-2.28-.7-1.023-12.632.77-7.311.66-10.278-.555-14.944-1.827-7.015-2.106-11.888-.78-13.638.54-.713.882-3.771.761-6.796-.344-8.596 3.028-15 7.9-15 1.355 0 2.698-.611 2.985-1.357s2.328-1.599 4.538-1.895c4.864-.653 12.342-4.262 15.983-7.714 1.47-1.394 3.122-2.559 3.672-2.59 2.545-.142 7.333-1.973 10.73-4.104 2.052-1.287 4.081-2.34 4.51-2.34s1.306-.843 1.949-1.874 2.386-2.179 3.872-2.552c3.878-.973 13.544-7.802 16.219-11.458 1.254-1.714 3.166-3.116 4.25-3.116s1.97-.406 1.97-.902 1.238-1.41 2.75-2.031c4.899-2.011 7.109-3.633 11.972-8.788 2.628-2.786 5.743-5.354 6.922-5.706s3.205-2.197 4.5-4.1 2.919-3.462 3.606-3.466S359 149.55 359 149s.597-1 1.326-1c1.838 0 5.674-4.269 5.674-6.314 0-.928.563-1.701 1.25-1.719 1.594-.043 5.75-3.48 5.75-4.756 0-.533 1.35-1.528 3-2.211 2.848-1.18 3.414-2.026 3.101-4.637-.075-.626.942-1.408 2.262-1.739s2.664-1.395 2.988-2.363a19.49 19.49 0 0 1 1.504-3.261c2.819-4.63 3.436-6.944 2.239-8.387-1.01-1.217-.845-1.361 1.005-.877 1.346.352 1.972.188 1.597-.419-.34-.55.715-1.984 2.343-3.188s2.961-2.877 2.961-3.718c0-.901.474-1.236 1.155-.816.73.452.882.274.413-.484-.407-.659-.329-1.741.173-2.405s1.464-5.272 2.138-10.241c1.044-7.698 1.007-9.456-.248-11.875-.81-1.561-1.207-3.532-.882-4.378.364-.949.178-1.285-.486-.875-.685.424-.886-.064-.552-1.341.289-1.104-.07-2.724-.798-3.601s-1.202-3.271-1.054-5.319c.175-2.426-.277-4.178-1.295-5.023-.86-.714-1.564-1.848-1.564-2.52s-.9-2.038-2-3.033-2-2.307-2-2.914-.868-1.647-1.928-2.309-2.526-2.458-3.257-3.99c-.885-1.854-2.235-2.892-4.033-3.1-1.761-.203-4.872-2.532-8.934-6.687-4.046-4.138-7.831-6.975-10.79-8.086-2.507-.941-5.752-2.544-7.212-3.563-2.971-2.071-4.295-2.387-3.307-.787.814 1.317-6.75.091-7.614-1.235-.317-.485-3.017-1.162-6-1.505s-5.785-1.231-6.225-1.974-2.015-1.343-3.5-1.335c-2.055.012-2.349.238-1.229.946m5.577 37.789c-.499 1.31-.379 1.464.477.616 1.264-1.254 4.975-.666 4.975.788 0 .507 1.238.792 2.75.634 1.879-.197 2.661.138 2.469 1.056-.155.739.295 1.137 1 .885 1.743-.624 4.978 1.143 4.25 2.321-.323.523-.035.95.639.95s.928.297.565.661.349 1.162 1.583 1.775 2.4 2.228 2.59 3.589.796 3.024 1.347 3.695c1.554 1.893 1.583 20.18.034 21.139-.701.433-1.484 1.878-1.741 3.211s-.95 2.585-1.541 2.782c-1.11.37-3.392 5.071-3.106 6.398.088.412-.289.75-.839.75s-1 .405-1 .9-1.462 2.464-3.25 4.377c-4.018 4.297-5.161 5.891-5.568 7.762-.413 1.897-6.32 6.994-7.36 6.351-.44-.272-.586.092-.326.808.275.754-.888 1.937-2.761 2.812-1.779.83-3.122 2.067-2.985 2.75s-.425 1.24-1.25 1.24-1.5.591-1.5 1.313c0 1.776-5.607 7.048-6.747 6.343-.501-.309-2.279.654-3.953 2.141s-3.591 2.829-4.261 2.983-2.324 1.593-3.675 3.199-5.023 4.157-8.16 5.671-6.047 3.307-6.466 3.984c-1.162 1.877-6.656 4.335-8.289 3.708-.797-.306-1.449-.031-1.449.61s-.45.888-1 .548-1 .084-1 .941-.365 1.559-.811 1.559-1.706.787-2.798 1.75-4.379 3.043-7.304 4.622c-4.205 2.272-5.49 2.595-6.14 1.542-1.138-1.841-.322-12.757 1.079-14.445.63-.76.852-1.857.493-2.438s.052-2.47.914-4.197 1.57-3.86 1.573-4.738.679-2.885 1.5-4.46 1.494-3.687 1.494-4.691.457-2.11 1.016-2.455.79-.994.514-1.442.391-1.949 1.484-3.338 1.986-3.416 1.986-4.503.672-3.267 1.494-4.843 1.496-4.327 1.5-6.114.483-3.25 1.065-3.25.784-.445.448-.989.018-.747.788-.451c.999.383 1.423-.331 1.484-2.499.102-3.571.989-5.322 2.29-4.518.512.316.931.038.931-.619s1.012-2.152 2.25-3.322c3.343-3.161 9.908-13.537 9.245-14.611-.317-.513.567-1.219 1.964-1.57 2.722-.683 3.329-1.962 1.291-2.718-.7-.261-.03-.95 1.526-1.569 1.526-.607 3.069-1.87 3.429-2.807s3.496-4.656 6.97-8.265 6.319-6.899 6.321-7.312.631-.75 1.397-.75 1.652-.675 1.969-1.5 1.116-1.5 1.778-1.5 2.027-.746 3.035-1.658 3.518-1.985 5.578-2.385l4.104-.842c.196-.063.057.673-.309 1.635M200.667 70.667c-1.35 1.349-.602 2.333 1.774 2.333 2.919 0 4.19-1.544 1.971-2.395-2.027-.778-2.92-.764-3.745.062m1.339 267.854c.856 3.057 1.045 7.235.586 12.902-.456 5.613-.329 8.498.384 8.736.744.248.76 1.958.054 5.685-.556 2.932-.79 8.679-.519 12.772.899 13.592-2.019 16.364-15.824 15.034-8.151-.785-9.905-1.341-16.565-5.249-8.661-5.083-9.68-5.97-12.641-11.024-2.543-4.339-2.661-4.99-1.489-8.23.699-1.936 2.369-4.673 3.71-6.083s3.113-4.207 3.937-6.216c1.166-2.838 2.208-3.786 4.68-4.254 1.978-.375 5.34-2.683 8.888-6.099 3.138-3.022 6.338-5.495 7.11-5.495s3.154-1.191 5.293-2.647c3.627-2.469 7.37-4.064 10.01-4.267.616-.047 1.69 1.948 2.386 4.435" fill-rule="evenodd"/></svg>
